<?xml version="1.0" encoding="UTF-8" standalone="no"?>
<!-- Generator: Adobe Illustrator 16.0.0, SVG Export Plug-In . SVG Version: 6.00 Build 0)  -->

<svg
   xmlns:dc="http://purl.org/dc/elements/1.1/"
   xmlns:cc="http://creativecommons.org/ns#"
   xmlns:rdf="http://www.w3.org/1999/02/22-rdf-syntax-ns#"
   xmlns:svg="http://www.w3.org/2000/svg"
   xmlns="http://www.w3.org/2000/svg"
   xmlns:sodipodi="http://sodipodi.sourceforge.net/DTD/sodipodi-0.dtd"
   xmlns:inkscape="http://www.inkscape.org/namespaces/inkscape"
   version="1.1"
   id="Capa_1"
   x="0px"
   y="0px"
   width="510"
   height="408"
   viewBox="0 0 510 408"
   xml:space="preserve"
   sodipodi:docname="F_T.svg"
   inkscape:version="0.92.2 (5c3e80d, 2017-08-06)"><metadata
     id="metadata42"><rdf:RDF><cc:Work
         rdf:about=""><dc:format>image/svg+xml</dc:format><dc:type
           rdf:resource="http://purl.org/dc/dcmitype/StillImage" /><dc:title></dc:title></cc:Work></rdf:RDF></metadata><defs
     id="defs40" /><sodipodi:namedview
     pagecolor="#ffffff"
     bordercolor="#666666"
     borderopacity="1"
     objecttolerance="10"
     gridtolerance="10"
     guidetolerance="10"
     inkscape:pageopacity="0"
     inkscape:pageshadow="2"
     inkscape:window-width="1366"
     inkscape:window-height="745"
     id="namedview38"
     showgrid="false"
     inkscape:zoom="1.3088408"
     inkscape:cx="186.64264"
     inkscape:cy="222.62201"
     inkscape:window-x="-8"
     inkscape:window-y="-8"
     inkscape:window-maximized="1"
     inkscape:current-layer="Capa_1" /><rect
     style="opacity:1;fill:#ffffff;fill-opacity:1;fill-rule:nonzero;stroke:none;stroke-width:0.3773883;stroke-linejoin:round;stroke-miterlimit:4;stroke-dasharray:none;stroke-opacity:1"
     id="rect829"
     width="464.61862"
     height="360.88983"
     x="12.9661"
     y="31.983051" /><g
     id="g5"
     transform="translate(0,-51)"
     style="fill:#000000;fill-opacity:1"><g
       id="unknown-6"
       style="fill:#000000;fill-opacity:1"><path
         d="m 357,204 h -51 v 51 h 51 z m 0,102 h -51 v 51 h 51 z M 153,204 h -51 v 51 h 51 z m 102,0 h -51 v 51 h 51 z M 459,51 H 51 C 22.95,51 0,73.95 0,102 v 306 c 0,28.05 22.95,51 51,51 h 408 c 28.05,0 51,-22.95 51,-51 V 102 C 510,73.95 487.05,51 459,51 Z m 0,357 H 51 V 102 h 408 z"
         id="path2"
         inkscape:connector-curvature="0"
         style="fill:#000000;fill-opacity:1" /></g></g><g
     id="g7"
     transform="translate(0,-102)" /><g
     id="g9"
     transform="translate(0,-102)" /><g
     id="g11"
     transform="translate(0,-102)" /><g
     id="g13"
     transform="translate(0,-102)" /><g
     id="g15"
     transform="translate(0,-102)" /><g
     id="g17"
     transform="translate(0,-102)" /><g
     id="g19"
     transform="translate(0,-102)" /><g
     id="g21"
     transform="translate(0,-102)" /><g
     id="g23"
     transform="translate(0,-102)" /><g
     id="g25"
     transform="translate(0,-102)" /><g
     id="g27"
     transform="translate(0,-102)" /><g
     id="g29"
     transform="translate(0,-102)" /><g
     id="g31"
     transform="translate(0,-102)" /><g
     id="g33"
     transform="translate(0,-102)" /><g
     id="g35"
     transform="translate(0,-102)" /><rect
     style="opacity:1;fill:#ffffff;fill-opacity:1;fill-rule:nonzero;stroke:none;stroke-width:36.49599838;stroke-linejoin:round;stroke-miterlimit:4;stroke-dasharray:none;stroke-opacity:1"
     id="rect830"
     width="376.01694"
     height="255"
     x="64.830505"
     y="77.36441"
     rx="8.62778"
     ry="8.62778" /><g
     inkscape:groupmode="layer"
     id="layer1"
     inkscape:label="Layer 1"
     sodipodi:insensitive="true" /><path
     inkscape:connector-curvature="0"
     d="m 475.10851,182.09366 c -6.52462,0 -12.16892,3.83311 -14.80423,9.36502 H 420.21071 L 392.14513,266.09093 326.28698,90.96491 288.49675,191.45868 h -24.33549 v 14.04754 h 34.0606 L 326.28745,130.87398 392.1456,306 429.93583,205.50622 h 30.36845 c 2.63531,5.53192 8.27962,9.36503 14.80423,9.36503 9.03678,0 16.3888,-7.35202 16.3888,-16.3888 0,-9.03677 -7.35202,-16.38879 -16.3888,-16.38879 z"
     id="path2-3-7"
     style="stroke-width:0.46825138" /><text
     xml:space="preserve"
     style="font-style:normal;font-variant:normal;font-weight:normal;font-stretch:normal;font-size:53.33333206px;line-height:1.25;font-family:Alef;-inkscape-font-specification:'Alef, Normal';font-variant-ligatures:normal;font-variant-caps:normal;font-variant-numeric:normal;font-feature-settings:normal;text-align:start;letter-spacing:0px;word-spacing:0px;writing-mode:lr-tb;text-anchor:start;fill:#000000;fill-opacity:1;stroke:none"
     x="82.75058"
     y="160.45271"
     id="text839"><tspan
       sodipodi:role="line"
       id="tspan837"
       x="82.75058"
       y="160.45271">F(w)</tspan></text>
<text
     xml:space="preserve"
     style="font-style:normal;font-variant:normal;font-weight:normal;font-stretch:normal;font-size:53.33333206px;line-height:1.25;font-family:Alef;-inkscape-font-specification:'Alef, Normal';font-variant-ligatures:normal;font-variant-caps:normal;font-variant-numeric:normal;font-feature-settings:normal;text-align:start;letter-spacing:0px;word-spacing:0px;writing-mode:lr-tb;text-anchor:start;fill:#000000;fill-opacity:1;stroke:none"
     x="84.807869"
     y="259.01321"
     id="text843"><tspan
       sodipodi:role="line"
       id="tspan841"
       x="84.807869"
       y="259.01321">f(t)</tspan></text>
</svg>