<?xml version="1.0" encoding="UTF-8" standalone="no"?>
<!-- Created with Inkscape (http://www.inkscape.org/) -->

<svg
   xmlns:dc="http://purl.org/dc/elements/1.1/"
   xmlns:cc="http://creativecommons.org/ns#"
   xmlns:rdf="http://www.w3.org/1999/02/22-rdf-syntax-ns#"
   xmlns:svg="http://www.w3.org/2000/svg"
   xmlns="http://www.w3.org/2000/svg"
   xmlns:sodipodi="http://sodipodi.sourceforge.net/DTD/sodipodi-0.dtd"
   xmlns:inkscape="http://www.inkscape.org/namespaces/inkscape"
   width="189.672mm"
   height="184.70799mm"
   viewBox="0 0 189.672 184.70799"
   version="1.1"
   id="svg8"
   sodipodi:docname="Logo.svg"
   inkscape:version="0.92.2 (5c3e80d, 2017-08-06)">
  <defs
     id="defs2" />
  <sodipodi:namedview
     id="base"
     pagecolor="#ffffff"
     bordercolor="#666666"
     borderopacity="1.0"
     inkscape:pageopacity="0.0"
     inkscape:pageshadow="2"
     inkscape:zoom="0.70710678"
     inkscape:cx="295.58738"
     inkscape:cy="302.81711"
     inkscape:document-units="mm"
     inkscape:current-layer="g4734"
     showgrid="false"
     inkscape:window-width="1366"
     inkscape:window-height="745"
     inkscape:window-x="-8"
     inkscape:window-y="-8"
     inkscape:window-maximized="1" />
  <metadata
     id="metadata5">
    <rdf:RDF>
      <cc:Work
         rdf:about="">
        <dc:format>image/svg+xml</dc:format>
        <dc:type
           rdf:resource="http://purl.org/dc/dcmitype/StillImage" />
        <dc:title></dc:title>
      </cc:Work>
    </rdf:RDF>
  </metadata>
  <g
     inkscape:label="Capa 1"
     inkscape:groupmode="layer"
     id="layer1"
     transform="translate(0,-112.29199)">
    <g
       id="g4734"
       transform="matrix(5.7455243,0,0,5.7455243,-529.18783,-645.37277)"
       inkscape:export-xdpi="8.2508745"
       inkscape:export-ydpi="8.2508745">
      <g
         id="g4788"
         inkscape:export-xdpi="8.2508745"
         inkscape:export-ydpi="8.2508745"
         transform="translate(-1.7903571,13.031546)">
        <path
           sodipodi:nodetypes="ccccccccccccccccccccccccccccc"
           inkscape:connector-curvature="0"
           d="m 99.201067,118.97463 c -0.555117,-0.001 -1.001055,1.07229 -1.001055,1.07229 0,0 -1.737262,3.84203 -2.605892,6.18064 -0.86864,2.33861 -0.09606,3.10696 -0.09606,3.10696 l 0.0626,2.17156 -0.980279,2.60634 15.367139,16.02858 0.64704,0.007 h 0.11135 l 0.0223,3.7e-4 0.64713,-0.007 15.36705,-16.02858 -0.98028,-2.60625 0.16028,-2.10644 c 0,0 0.675,-0.83356 -0.19364,-3.17217 -0.86863,-2.33861 -2.6059,-6.18064 -2.6059,-6.18064 0,0 -0.90201,-2.17153 -1.73723,-0.33405 -0.83522,1.83747 -5.57928,8.25192 -5.57928,8.25192 l -5.62219,0.0613 -4.66773,-0.0617 c 0,0 -4.74397,-6.41445 -5.579189,-8.25192 -0.247956,-0.5455 -0.501793,-0.73769 -0.736176,-0.73824 z m 12.412093,9.04476 -1.01689,0.0126 -0.87028,-3.6e-4 0.87028,3.6e-4 -0.30769,-0.004 z"
           style="fill:#ffffff;fill-opacity:1;stroke:#000000;stroke-width:0.26458332px;stroke-linecap:butt;stroke-linejoin:miter;stroke-opacity:1"
           id="path4658-2" />
        <path
           style="fill:#000000;fill-opacity:1;stroke:#000000;stroke-width:0.26499999;stroke-linecap:butt;stroke-linejoin:miter;stroke-miterlimit:4;stroke-dasharray:none;stroke-opacity:0.160804"
           d="m 108.66815,139.10044 -1.22842,-3.87425 -4.8192,-1.51191 1.51191,3.2128 z"
           id="path4519"
           inkscape:connector-curvature="0" />
        <path
           style="fill:#000000;fill-opacity:1;stroke:#000000;stroke-width:0.26499999;stroke-linecap:butt;stroke-linejoin:miter;stroke-miterlimit:4;stroke-dasharray:none;stroke-opacity:0.160804"
           d="m 112.33862,139.10044 1.22842,-3.87424 4.8192,-1.51191 -1.51191,3.21279 z"
           id="path4519-2"
           inkscape:connector-curvature="0" />
        <path
           style="fill:#000000;fill-opacity:1;stroke:none;stroke-width:0.26499999;stroke-linecap:butt;stroke-linejoin:miter;stroke-miterlimit:4;stroke-dasharray:none;stroke-opacity:1"
           d="m 108.20935,144.90253 0.26768,-0.25012 0.26717,-0.26768 h 3.94239 l 0.30024,0.26768 0.25063,0.25012 v 0.30075 l -0.25063,1.0356 -0.30024,0.48472 -0.26716,0.53434 h -3.4246 l -0.25063,-0.53434 -0.26717,-0.48472 -0.26768,-1.0356 z"
           id="path4594"
           inkscape:connector-curvature="0" />
        <path
           style="fill:#000000;fill-opacity:1;stroke:#000000;stroke-width:0.465;stroke-linecap:butt;stroke-linejoin:miter;stroke-miterlimit:4;stroke-dasharray:none;stroke-opacity:0.35175883"
           d="m 97.581608,130.81247 0.30707,1.29927 0.283462,1.06306 0.80319,0.0472 4.48867,-3.21271 0.0472,-0.30711 -3.16571,-4.72474 -0.850442,-0.0236 -0.85045,1.58283 -0.212558,0.61421 -0.543341,1.03938 -0.28349,0.56698 z"
           id="path4617"
           inkscape:connector-curvature="0" />
        <path
           style="fill:#000000;fill-opacity:1;stroke:#000000;stroke-width:0.465;stroke-linecap:butt;stroke-linejoin:miter;stroke-miterlimit:4;stroke-dasharray:none;stroke-opacity:0.35175883"
           d="m 122.72654,130.94092 -0.30707,1.29927 -0.28347,1.06306 -0.80319,0.0472 -4.48865,-3.21271 -0.0472,-0.30711 3.16569,-4.72474 0.85045,-0.0236 0.85045,1.58283 0.21255,0.61421 0.54334,1.03938 0.28349,0.56698 z"
           id="path4617-2"
           inkscape:connector-curvature="0" />
        <g
           id="g4749">
          <path
             sodipodi:nodetypes="cccccccccccc"
             inkscape:connector-curvature="0"
             id="path4658"
             d="m 109.73598,128.02794 0.87031,4.2e-4 -5.07981,-0.0672 c 0,0 -4.74403,-6.41447 -5.579246,-8.25194 -0.83522,-1.83748 -1.73725,0.33408 -1.73725,0.33408 0,0 -1.73725,3.842 -2.60588,6.18061 -0.86864,2.33861 -0.096,3.10701 -0.096,3.10701 l 0.0626,2.17156 -0.98028,2.60633 15.367096,16.02855 0.64709,0.007 h 0.13368"
             style="fill:none;stroke:#000000;stroke-width:0.26458332px;stroke-linecap:butt;stroke-linejoin:miter;stroke-opacity:1" />
          <path
             sodipodi:nodetypes="cccccccccccc"
             inkscape:connector-curvature="0"
             id="path4658-9"
             d="m 111.62314,128.01573 -1.88716,0.0122 6.08038,-0.0664 c 0,0 4.74403,-6.41447 5.57925,-8.25194 0.83522,-1.83748 1.73725,0.33408 1.73725,0.33408 0,0 1.73725,3.842 2.60588,6.18061 0.86864,2.33861 0.1937,3.17214 0.1937,3.17214 l -0.16027,2.10643 0.98028,2.60633 -15.3671,16.02855 -0.64709,0.007 -0.25057,-0.004"
             style="fill:none;stroke:#000000;stroke-width:0.26458332px;stroke-linecap:butt;stroke-linejoin:miter;stroke-opacity:1" />
        </g>
        <path
           style="fill:none;stroke:#000000;stroke-width:0.89999998;stroke-linecap:butt;stroke-linejoin:miter;stroke-miterlimit:4;stroke-dasharray:none;stroke-opacity:0.11557791"
           d="M 94.218607,134.31946 109.85737,150.537 h 1.42786 l 1.88401,-1.78599"
           id="path4695"
           inkscape:connector-curvature="0"
           sodipodi:nodetypes="cccc" />
        <path
           style="fill:none;stroke:#000000;stroke-width:0.121;stroke-linecap:butt;stroke-linejoin:miter;stroke-miterlimit:4;stroke-dasharray:none;stroke-opacity:1"
           d="m 126.13959,134.75114 c 1.36718,-0.39833 0.33037,-1.59615 0.33037,-1.59615"
           id="path4697"
           inkscape:connector-curvature="0"
           sodipodi:nodetypes="cc" />
        <path
           style="fill:none;stroke:#000000;stroke-width:0.121;stroke-linecap:butt;stroke-linejoin:miter;stroke-miterlimit:4;stroke-dasharray:none;stroke-opacity:1"
           d="m 95.28029,134.75292 c -1.565962,-0.42756 -0.33037,-1.59615 -0.33037,-1.59615"
           id="path4697-9"
           inkscape:connector-curvature="0"
           sodipodi:nodetypes="cc" />
      </g>
    </g>
  </g>
</svg>
